<?xml version="1.0" standalone="no"?>
<svg xmlns:xlink="http://www.w3.org/1999/xlink" id="wave" style="transform:rotate(180deg); transition: 0.3s" viewBox="0 0 1440 100" version="1.1" xmlns="http://www.w3.org/2000/svg"><defs><linearGradient id="sw-gradient-0" x1="0" x2="0" y1="1" y2="0"><stop stop-color="rgba(16, 23, 40, 1)" offset="0%"/><stop stop-color="rgba(16, 23, 40, 1)" offset="100%"/></linearGradient></defs><path style="transform:translate(0, 0px); opacity:1" fill="url(#sw-gradient-0)" d="M0,30L26.7,28.3C53.3,27,107,23,160,25C213.3,27,267,33,320,45C373.3,57,427,73,480,76.7C533.3,80,587,70,640,65C693.3,60,747,60,800,55C853.3,50,907,40,960,30C1013.3,20,1067,10,1120,13.3C1173.3,17,1227,33,1280,45C1333.3,57,1387,63,1440,60C1493.3,57,1547,43,1600,35C1653.3,27,1707,23,1760,33.3C1813.3,43,1867,67,1920,66.7C1973.3,67,2027,43,2080,35C2133.3,27,2187,33,2240,30C2293.3,27,2347,13,2400,21.7C2453.3,30,2507,60,2560,75C2613.3,90,2667,90,2720,90C2773.3,90,2827,90,2880,88.3C2933.3,87,2987,83,3040,78.3C3093.3,73,3147,67,3200,68.3C3253.3,70,3307,80,3360,81.7C3413.3,83,3467,77,3520,66.7C3573.3,57,3627,43,3680,31.7C3733.3,20,3787,10,3813,5L3840,0L3840,100L3813.3,100C3786.7,100,3733,100,3680,100C3626.7,100,3573,100,3520,100C3466.7,100,3413,100,3360,100C3306.7,100,3253,100,3200,100C3146.7,100,3093,100,3040,100C2986.7,100,2933,100,2880,100C2826.7,100,2773,100,2720,100C2666.7,100,2613,100,2560,100C2506.7,100,2453,100,2400,100C2346.7,100,2293,100,2240,100C2186.7,100,2133,100,2080,100C2026.7,100,1973,100,1920,100C1866.7,100,1813,100,1760,100C1706.7,100,1653,100,1600,100C1546.7,100,1493,100,1440,100C1386.7,100,1333,100,1280,100C1226.7,100,1173,100,1120,100C1066.7,100,1013,100,960,100C906.7,100,853,100,800,100C746.7,100,693,100,640,100C586.7,100,533,100,480,100C426.7,100,373,100,320,100C266.7,100,213,100,160,100C106.7,100,53,100,27,100L0,100Z"/></svg>